<?xml version="1.0" encoding="utf-8"?>
<!-- Generator: Adobe Illustrator 28.0.0, SVG Export Plug-In . SVG Version: 6.00 Build 0)  -->
<svg version="1.1" id="Слой_1" xmlns="http://www.w3.org/2000/svg" xmlns:xlink="http://www.w3.org/1999/xlink" x="0px" y="0px"
	 viewBox="0 0 707.932 1165.354" enable-background="new 0 0 707.932 1165.354" xml:space="preserve">
<g>
	<path fill="#FEFEFE" d="M212.407,1044.944c2.543-3.542,5.626-4.603,2.53-9.075c-2.33-5.821,2.573-11.938-0.19-18.246
		c-7.663-43.837,25.924-80.163,28.773-122.67c19.276-9.228,22.156-14.799,14.139-33.904c5.412-16.261,26.261,10.254,23.744-6.136
		c-5.682-34.37,31.431,27.361,57.136,14.823c-17.45-16.383-25.656-118.281-7.645-70.841c5.999,31.003,22.002,56.736,20.453,90.17
		c4.302,21.866,32.408,19.629,42.676,53.83c75.908,108.678-28.164,59.274,19.601,54.694c-35.411-5.07-68.631-15.687-101.016-30.701
		c12.581,32.67,50.449,59.558,82.041,79.457c-3.783-12.715-11.64-22.037,4.628-14.546c10.455,6.78,37.769,2.131,37.108,17.493
		c6.427,23.968,16.119,51.118,14.314,77.5c-9.963,42.652,86.708,54.7,81.426,11.413c-12.667-24.537-19.659-49.844-25.602-75.853
		c-17.795-24.803,6.042-24.621,25.058-30.522c140.279-62.351,9.593-187.124-63.924-243.615c-27.868-28.809-3.203-7.072,5.745-12.97
		c-2.403-5.967,1.707-1.249,3.395-0.135c19.312,18.321,43.892,7.979,68.137,6c-30.119-23.385-61.554-68.898-13.311-19.625
		c15.463,19.278,53.462,1.956,59.932,30.412c1.702,11.338,8.498,18.838,18.925,22.958c56.281,4.779,81.415,62.741,79.135,101.32
		C802.643,738.15,350.899,606.5,468.702,469.041c60.764-82.075-5.993-28.584-8.84-83.636c20.945-35.499,26.808-6.007,5.278,8.938
		c9.366,1.68,17.586-8.027,16.527-18.798c-11.81-26.303,12.037-20.612,11.515-41.44c-26.485,43.649,1.132-16.507-20.376-30.363
		c-23.299-30.008,41.308,25.14,23.294,51.863c21.446-37.122-27.702-66.853-52.267-86.694c9.848-14.598,8.523-31.334-1.802-44.924
		c-20.871-29.241-57.55-37.607-87.454-54.375c-11.758-7.769-24.91-22.766-20.827-37.826c17.395-31.268,22.46-50.157-15.321-21.516
		c3.967-13.708-18.119-21.487-8.835-33.142c21.652-19.595,59.015-57.124,14.932-75.568c-9.407-6.593-36.309,9.946-24.029,8.337
		c32.972,3.275,4.319,27.598-13.972,27.085c-22.771,5.503-33.162,23.891-40.088,41.021c-7.668-5.649-31.879-13.085-30.996,3.28
		c-25.145,8.713-10.157-14.304-4.51-25.458c6.028-18.456-14.901-34.74-31.009-23.978c5.709,1.637,11.343,0.881,13.452,7.905
		c-8.016,28.975-47.78,34.105-21.636,75.38c30.382,48.763,27.566,20.739,1.022,69.336c-2.337,11.006,3.771,20.835,14.715,23.43
		c-8.044-7.027-13.09-19.598-5.515-28.394c14.129-15.37,24.671-22.194,11.946,3.14c-14.909,15.36,9.773,35.818-4.239,40.334
		c-10.077,1.645-10.657,8.753-15.517,15.982c-9.472,4.413-13.27,9.756-10.787,21.057c-8.659,4.828-21.458,6.346-27.755,14.002
		c-2.534,22.644-5.488,45.333-12.251,67.168c-2.631,8.764-3.353,8.547,5.684,11.59c-4.473,21.907-6.562,48.956-21.711,59.471
		c0.395,7.333-11.687,29.049-18.121,18.988c-25.176-7.145-10.953,59.804-22.554,76.604c-0.366,20.218-20.27,37.776-12.003,55.819
		c-2.629,16.982-18.947,35.986-6.714,51.837c1.99,28.303,51.732,33.635,45.932,5.777c7.723-3.579,3.52-12.046-3.635-8.081
		c6.068-38.419,3.936-82.943,41.316-107.166c3.226,29.445-39.329,66.101-21.886,96.702c-2.475,48.632-36.123,95.445-54.985,140.655
		C34.461,791.459-8.7,837.276,1.551,892.457c26.052,56.42,17.708,28.599,24.795-10.27c8.996-18.017,39.014-24.75,57.708-24.848
		c-0.034,8.69-8.708,20.232,3.677,23.662c16.192,5.81,33.321-0.677,48.826-4.994c-0.019,32.185,32.627,34.191,25.295,69.828
		c6.295,49.079-16.962,92.755-46.074,128.298c-11.976,15.471-64.85,28.588-52.836,48.686c39.003,24.926,86.079-9.668,120.864-8.184
		C235.511,1116.181,213.883,1078.812,212.407,1044.944z"/>
	<path fill="#FFFFFF" d="M468.563,393.08c10.237-8.475,12.306-21.311,4.542-29.391c0.621,12.309-14.427,17.816-14.364,27.183
		c17.41,44.102,63.7,7.795,12.212,72.662c-2.809,18.482-25.306,25.724-30.522,41.773
		c37.608,130.209,177.475,176.055,244.744,283.909c40.867,38.398,3.568,171.055,2.417,107.508
		c3.116-77.874-73.97-59.287-96.052-104.819c-6.441-28.463-44.488-11.16-59.913-30.421c-9.432-7.409-48.071-49.131-33.134-31.479
		c13.047,19.3,28.195,36.388,46.439,51.102c-26.334,2.917-52.428,12.285-72.359-9.537c-59.19,17.106,179.93,104.518,107.667,223.409
		c-17.633,27.832-85.362,69.816-92.68,18.148c38.499-1.628,80.757-29.833,71.021-72.678
		c-20.887-78.449-117.931-101.864-154.363-171.1c-24.707-46.234-26.95-100.604-48.74-148.489
		c28.028-28.02,80.645,137.646,83.966,135.792c21.031,21.044-64.534-142.62-66.415-174.125c-6.368,12.695,3.358,24.121,8.781,35.222
		c-42.703-2.474-72.89-35.718-91.234-71.391c-4.648-16.425-39.676-20.064-38.046-39.389
		c-32.901-18.595,35.296,106.126,68.644,96.652c11.632-4.71-19.129-4.59-12.557-23.114c10.63,18.235,36.54,26.904,43.821,40.511
		c15.869,52.783,26.661,108.346,50.121,158.155c-2.019,3.353,3.42,13.667,2.965,26.125c4.503,11.922,4.377-16.12,4.426-20.597
		c11.136,21.664,77.477,97.523,44.661,72.286c3.094,10.909-1.898,43.507-16.122,35.312c-52.353-41-3.095-28.602-8.719-70.802
		c-2.622,13.781-13.982,38.525-32.433,38.43c-18.174,2.722-32.432-17.502-46.659-13.147c30.389,39.356,60.345-2.901,55.672,66.326
		c-24.559-13.704-48.563,6.663-55.004-24.035c-1.823-38.73-14.102-74.033-28.928-109.108
		c-18.098,44.081,57.465,139.425-34.378,64.846c-7.678-6.592-7.541,4.972-6.638,10.103c2.515,16.487-18.326-10.201-23.733,6.142
		c-5.398-7.852-6.136-18.347-10.197-27.004c-27.468-55.175-9.325-91.005-1.548-147.386c-6.739,21.075-16.86,51.327-22.647,63.938
		c-1.563,10.689,16.256,50.958-3.912,41.463c0.903,17.961,18.673,15.209,11.443,29.43c-10.785,14.371-31.997,27.679-52.975,31.451
		c-8.436,2.058-23.177-0.173-22.691-10.979c4.681-10.346-8.37-25.752,10.189-23.492c-24.284-23.487-9.793-27.352-18.703-54.496
		c-9.59-33.81-18.391-68.033-17.898-103.414c-5.666-23.265,15.987-115.937-8.537-68.954c-11.443,11.366-10.099-21.675-1.339-26.286
		c11.261-11.206,64.333-80.685,38.484-59.787c-11.058,14.609-62.691,94.944-43.354,55.556
		c10.884-16.737,11.203-37.104,19.162-55.199c19.447-21.261,43.458-20.814,36.349,11.844c4.972,37.402-12.509,80.763,2.612,114.671
		c21.894,23.958,35.238,76.484,50.857,21.887c45.298-43.704,10.27-85.791,12.522-138.963c-5.108-25.375-2.18,68.177,7.239,87.516
		c-3.775,12.781-44.151,86.034-36.658,50.226c-4.302-0.603-0.255,6.441-5.499,3.846c-0.797,0.174-2.013,2.829-3.973-0.747
		c-42.749-40.21-18.344-97.494-23.34-149.714c7.343-39.655-38.976,6.658-24.99-37.857c-3.123-15.12,17.036-10.189,22.405-16.698
		c-16.79,9.528-27.542-15.242-8.32-19.537c0.125,8.631,5.296,9.958,8.412,0.68c-13.118-24.414,3.653-56.28-5.719-69.924
		c-21.229-20.074,2.732-43.275,6.566-64.061c0.283-7.339,4.071,2.361,6.55,3.859c47.877,48.368,112.697,2.384,162.22-30.124
		c13.732-8.867,3.039,8.353,0.48,15.717c-2.22,7.148-4.558,0.524-9.553-1.617c0.535,3.293,0.567,5.186,1.17,6.875
		c8.539,12.884,11.164,53.744-5.116,26.214c4.394,31.801-0.827-4.898,10.855,17.067c6.564-27.696,41.056-9.683,59.222-3.973
		c22.78,8.912,46.872-8.825,48.78,24.541c7.036,19.244,7.057-14.598-0.626-22.303c3.708-5.719,11.45-12.589,1.009-16.424
		c-25.932-14.878-15.122-56.807-42.744-70.99c-44.897-16.312-119.311,80.045-186.652,72.972
		c-26.605-5.434-42.827-38.934-67.566-38.343c31.197,6.03,16.359,35.888-2.055,46.325c18.466,5.423-6.797,10.593-14.491,9.017
		c-16.721,5.119,8.248,6.119,14.204,5.058c11.506,2.875,9.501,24.815,15.107,34.543c0.357,17.385,4.525,41.504-7.613,53.343
		c-17.878,7.86,5.116,15.899-5.817,25.695c-14.07,52.626-12.774,5.763-54.956-12.433c-8.04,8.421-12.362,39.001-13.995,51.352
		c9.301-52.716,27.188-47.314,58.208-9.352c11.383,21.815-19.074,15.178-27.131,3.477c32.651,26.028-0.646,22.136-11.441,58.418
		c3.979,6.421-5.093,9.518-3.984,15.382c8.008,17.927-9.657,32.062-5.44,49.828c15.519-4.442,1.244,8.058,5.14,14.75
		c-1.943-0.4-3.269-2.974-5.981-0.433c-15.13,10.734-14.669-15.977-16.697-24.996c-4.464,6.893-0.503,13.348,0.528,19.649
		c6.532,15.693,10.944,23.095-9.996,14.707c-13.292-5.8-21.833-28.474-18.537-42.692c20.316-34.718-10.319-45.91,26.508-49.68
		c-5.68-6.193-17.306,4.296-16.888,0.089c16.778-29.786,15.863-65.575,21.92-98.297c-0.035-34.044,15.538-1.308,26.585-20.894
		c6.111-4.512,2.304-13.45,6.616-18.098c16.336-2.289,13.754-39.154,19.612-54.513c-17.11-5.296,10.612-58.919,6.555-78.758
		c40.216-17.621,15.254-16.815,38.539-35.073c4.977-6.824,5.322-14.824,15.522-15.97c2.612-0.975,5.206-2.006,8.247-3.178
		c-22.335-17.487,3.563-40.347,1.875-57.272c-14.164,10.966-32.119,28.257-13.207,44.401c-9.888-0.224-16.203-12.693-13.806-22.459
		c39.296-56.564,10.694-29.057-7.074-83.936c-21.478-28.375,55.5-55.111,15.932-67.792c6.968-12.535,37.861,3.497,29.297,23.082
		c-1.025,6.674-20.022,26.294-4.578,27.165c18.43-6.57,9.603-18.507,37.173-7.295c6.089,10.997,2.243,21.217,4.838,0.957
		c1.626-36.989,50.103-34.123,67.149-55.073c1.736-9.425-10.34-14.553-19.322-10.528c9.344-17.757,45.826-11.187,47.984,11.492
		c6.766,26.616-22.27,36.13-34.572,54.585c-9.282,11.532,12.809,19.313,8.834,33.139c37.65-27.062,32.855-11.388,15.318,21.524
		c-0.27,56.07,84.591,48.865,108.279,92.201c10.293,13.663,11.687,30.253,1.804,44.919c17.685,14.936,40.805,27.921,52.095,49.237
		c4.534,9.937,10.322,31.436-0.62,36.612c11.295-29.218-13.471-52.037-36.26-65.932c16.113,14.953,33.53,39.495,18.175,61.09
		C478.966,362.827,489.123,393.563,468.563,393.08z M409.62,233.868c-21.744-19.417-50.342-2.654-71.289,8.957
		C361.861,231.655,408.615,223.55,409.62,233.868z M248.396,326.817c-29.282,19.226-26.309,25.173-47.749-5.824
		c2.123,17.478,24.089,28.696,9.897,46.991c10.499-7.66,3.427,30.616-3.25,32.899c0.194,2.037,1.325,5.042,0.407,5.928
		c-11.193,20.913,14.27,1.198,1.84-8.827c16.97,0.364,2.576-37.093,18.849-29.058C214.273,353.513,241.106,335.218,248.396,326.817z
		 M394.479,776.027c0.742,0.41,2.894,4.484,2.164,2.843C396.181,776.953,391.272,772.823,394.479,776.027z M270.59,219.041
		c0.495-0.501,1.013-0.981,1.444-1.54C271.442,217.819,269.238,220.062,270.59,219.041z M274.58,216.03
		c0.957-1.045,1.963-2.044,2.957-3.055C279.199,211.573,272.651,217.359,274.58,216.03z M281.526,209.965
		c3.724-3.489,7.05-7.661,11.215-10.418C289.312,201.816,282.78,208.684,281.526,209.965z M247.535,100.962
		c2.342,1.851,3.183,5.691,6.299,6.363C251.304,107.168,247.909,100.494,247.535,100.962z M222.512,274.99
		c1.356,0.954-1.773-1.046-2.398-1.26C220.912,274.151,221.712,274.57,222.512,274.99z M346.543,215.987
		c-1.688,1.172-0.764,0.36,0.323-0.179C347.103,215.332,346.681,215.852,346.543,215.987z M181.504,627
		c1.425,1.691-2.275-4.139-1.077-1.943C180.786,625.705,181.145,626.353,181.504,627z M228.529,619.969
		c0.148-1.016,13.685-11.798,4.335-20.53C233.269,606.686,234.843,614.581,228.529,619.969z M134.542,568.986
		c-0.426,2.431-0.585,0.443,0.313-0.163C135.094,568.361,134.679,568.856,134.542,568.986z M149.501,554.935
		c-0.384,0.904-0.803,1.801-1.385,2.438C148.557,556.909,150.578,553.61,149.501,554.935z M399.933,400.329
		c1.837-2.636,1.077-3.574,0.425-0.98C400.382,398.824,400.14,398.989,399.933,400.329z M271.537,615.958
		c2.909,0.872-1.115-0.283-2.082-0.836C268.825,616.349,270.724,615.743,271.537,615.958z M400.595,426.047
		c20.985-12.213,48.483-11.693,71.948-11.507C450.75,401.915,414.651,408.288,400.595,426.047z M203.516,112.956
		c3.116-3.64-6.26,8.264-4.938,12.058C202.944,125.927,200.755,115.933,203.516,112.956z M397.527,402.967
		c-3.193,3.967-0.613,3.94,0.365-0.144C398.127,402.311,397.69,402.824,397.527,402.967z M341.596,339.89
		c-0.895-0.975,0.723,3.444,0.637,4.592C345.236,344.109,342.146,341.603,341.596,339.89z M154.385,545.807
		c-1.131,2.217-2.197,4.47-3.366,6.669C152.154,551.492,155.784,545.201,154.385,545.807z M247.524,681.964
		c0.416-3.568,0.832-7.137,1.248-10.705C246.191,670.689,247.605,689.093,247.524,681.964z M159.374,536.795
		c-0.712,2.273-5.904,6.136-2.3,7.109C157.377,542.161,160.792,536.429,159.374,536.795z M146.539,559.982
		c-0.188,3.124-5.544,9.883-2.055,10.895C144.973,567.89,146.461,560.689,146.539,559.982z M92.356,543.161
		c1.102-5.102-7.957-4.02-11.582-3.757C84.633,540.657,88.492,541.911,92.356,543.161z M368.484,526.029
		c2.369,0.481-7.07-8.963-11.923-6.536C360.534,521.672,364.508,523.851,368.484,526.029z M359.46,498.887
		c-30.615,22.84,34.826-7.548,29.637,54.894c15.512-14.664,29.709-32.734,46.579-46.846c-20.263,15.875-10.864-39.923-47.332-38.479
		c36.358,16.451,38.525,58.21,2.567,75.759C393.178,500.102,348.351,512.218,359.46,498.887z M264.463,222.891
		c-9.607,3.563-20.38,6.462-28.969-1.107C239.939,230.38,259.869,229.076,264.463,222.891z M255.66,583.852
		c-0.774-5.294,2.101,24.742,8.592,23.134C261.391,599.274,258.527,591.561,255.66,583.852z M219.527,195.971
		c-1.488-3.333,7.217,24.479,14.422,23.823C229.142,211.854,224.334,203.913,219.527,195.971z M222.609,236.89
		c21.721,37.292,8.427,18.302,11.523,54.508c8.764-2.655-5.292-19.323,7.709-23.575c36.187-19.964,57.807-63.931,100.888-69.867
		c-23.416,1.877-34.901,13.076-37.834-18.914c-3.927,30.925,9.88,30.465-23.931,53.096
		C206.102,315.513,238.508,183.484,222.609,236.89z M384.902,460.363c-13.122-7.393-28.625,41.102-16.744,25.38
		c1.695-12.332,13.64-16.224,18.424-26.786c2.846-22.234,19.046-29.305,39.284-29.546c-24.45-8.101-40.527,21.639-32.501-17.557
		c-15.712-17.748-35.062-37.302-39.875-62.244c-3.739-30.415-3.082-12.82-3.113,8.375c-8.574-6.674-8.458-6.24-4.217,3.775
		c-19.358-8.772-24.976-28.301-26.582-47.418c6.414-33.719-7.711-23.388-5.322,3.603c-0.142,13.369,17.993,33.033,1.228,35.985
		c25.59-12.666,16.419,54.108,34.029,6.326C373.348,390.133,393.966,425.272,384.902,460.363z M368.637,199.748
		c-8.973,5.427,5.139,7.171,9.548,10.372c20.41,9.043-19.411-25.951-27.575-31.132C321.428,159.735,356.188,193.511,368.637,199.748
		z M383.431,195.039c10.273,16.278,55.105,40.145,50.385,65.351c17.79,14.347,14.841-29.245,2.144-36.437
		C421.538,209.378,401.874,202.775,383.431,195.039z M352.361,372.816c-14.143,14.326-20.482,35.207-40.23,43.408
		c-6.025,3.178-3.293,3.872,1.692,4.065c3.215,8.451-3.059,13.525-6.685,19.686c5.994,2.407,4.875,5.895,1.812,9.108
		c-3.032,4.601-12.461,5.631-5.91,11.885c-16.104-0.974-49.815-9.976-55.549-7.045c7.554,0.48,9.329,2,8.934,9.343
		c-0.416,20.978-3.913,30.468-26.356,26.352c9.601,5.658,31.012,0.208,44.529,2.045c-19.24,1.065-13.483-14.998-13.984-28.805
		c6.102-13.244,30.547,1.992,42.712,1.381c8.249,6.555,3.461,23.09,3.331,32.637c-30.784-5.805-30.298-2.908-1.151,6.396
		c5.709,1.636,8.014,5.682,11.21,10.469c-7.01,0.644-9.687-8.291-16.379-6.53c13.596,20.337,24.273,12.839,48.086,7.42
		c-42.627,9.885-34.031-31.823-36.064-59.777C314.62,427.143,346.559,397.33,352.361,372.816z M226.865,464.842
		c5.063-26.659-18.142-19.88-36.467-17.767c-20.404-0.626-9.603,29.577-11.929,42.796c5.379,11.714,28.883,2.594,40.413,4.451
		C229.115,489.77,225.437,474.109,226.865,464.842z M242.021,632.856c20.628,43.452,48.697,98.321,75.436,137.351
		C294.396,722.948,275.858,673.744,242.021,632.856z M224.388,319.129c5.777-3.751-2.309-20.185,11.508-19.364
		c43.303-20.995,60.152-26.314,90.59-48.419c-29.968,8.592-65.199,43.237-97.922,45.044c-3.954-3.989-0.115-17.336-5.213-18.602
		c5.472,34.217-48.09-11.042-47.617-31.555C169.53,286.364,236.43,281.461,224.388,319.129z M384.627,554.483
		c-21.749,31.4-58.083,52.897-73.697,3.059C308.688,603.271,378.851,596.569,384.627,554.483z M448.836,296.33
		c8.111,14.706,15.722,28.506,23.876,43.289C476.419,327.582,463.467,305.543,448.836,296.33z M266.824,497.777
		c-7.833,13.47,10.559,22.409,15.383,33.265C290.662,518.181,268.601,513.187,266.824,497.777z M454.422,378.073
		c14.755-4.555,3.947-51.017,3.681-23.836C459.301,363.154,447.294,370.88,454.422,378.073z M203.55,215.664
		c-9.533-12.3-0.69-23.4-0.639-35.189C195.783,190.604,185.801,210.924,203.55,215.664z M400.292,411.758
		c11.105-10.523,23.608-17.696,39.483-17.265C426.897,389.016,406.799,395.815,400.292,411.758z M72.553,538.183
		c5.298-12.264,27.205-46.415-2.463-34.745C90.629,505.043,75.728,520.743,72.553,538.183z M291.092,375.777
		c17.274,2.042,25.466-12.059,38.604-15.578C320.146,357.809,304.057,371.868,291.092,375.777z M465.688,459.447
		c0.913-10.92-9.065-20.987-19.365-22.378C452.352,444.035,459.029,451.751,465.688,459.447z M283.153,444.952
		c-2.375-11.831-3.387-12.85-11.67-11.425C295.837,446.908,223.722,443.684,283.153,444.952z M111.744,422.645
		c-2.07,6.554,2.596,9.776,5.771,13.798C120.117,433.568,112.841,426.774,111.744,422.645z M208.35,212.902
		c3.661-1.289-1.485-9.44-1.365-13.187C205.917,204.435,204.746,209.144,208.35,212.902z M172.957,282.823
		c-2.232-6.383-4.208-12.031-6.334-18.113C166.193,271.796,166.283,278.2,172.957,282.823z M209.57,421.573
		c-0.492,4.863-7.675,13.899-3.462,15.809C205.364,431.645,213.497,428.342,209.57,421.573z M349.274,213.216
		c4.25,3.07,15.183-1.344,21.647-0.906C366.387,209.487,355.808,213.613,349.274,213.216z M364.341,457.986
		c-3.254-1.069-5.758,11.944-4.769,13.953C361.164,467.289,362.752,462.637,364.341,457.986z M177.665,118.818
		c-1.729,2.91,6.944,4.39,9.212,6.523C188.932,121.876,180.091,120.977,177.665,118.818z M375.603,807.746
		c1.286,3.888,11.526,3.273,15.913,5.432C390.27,809.27,379.985,809.904,375.603,807.746z M314.299,544.337
		c-2.454-2.924-9.214,3.806-13.09,4.599C303.792,551.56,310.401,545.14,314.299,544.337z M206.027,85.397
		c0.677,3.325,7.083-0.862,9.938-0.736C214.786,82.157,208.874,85.57,206.027,85.397z M323.142,148.262
		c-3.108,1.617-2.745,8.409-4.505,11.851C322.538,160.762,321.438,151.443,323.142,148.262z M66.63,634.134
		c1.18-3.449-7.307-3.532-9.922-5.421C56.238,631.836,64.029,632.219,66.63,634.134z M142.85,272.736
		c-2.828,1.954,2.677,3.944,3.928,5.817C149.499,276.611,144.07,274.604,142.85,272.736z M334.39,246.098
		c-1.292-2.662-4.635,1.877-6.72,2.501C329.029,251.435,332.27,246.79,334.39,246.098z M330.768,178.53
		c-2.792,0.594,0.416,4.009,0.633,5.942C333.96,183.999,330.878,180.375,330.768,178.53z M329.677,168.811
		c-2.676-0.132-0.076,3.664-0.128,5.395C331.791,174.077,329.534,170.446,329.677,168.811z M178.267,622.838
		c2.363-0.651-0.339-2.799-0.782-4.306C175.155,619.18,177.841,621.34,178.267,622.838z M415.781,241.484
		c-2.465,0.086,0.095,3.741,0.046,5.432C417.835,246.643,415.643,243.085,415.781,241.484z M125.096,507.467
		c1.863,0.225,0.79-1.744,0.88-2.971C124.014,504.288,125.114,506.176,125.096,507.467z M346.971,201.173
		c1.709-0.598-0.448-2.179-0.815-3.313C344.164,198.53,346.433,199.969,346.971,201.173z M162.431,531.642
		c-1.402-0.804-1.22,1.584-1.767,2.502C162.233,535.077,161.915,532.671,162.431,531.642z M317.567,542.364
		c-0.683-1.024-1.574-1.065-1.903-0.046C316.352,543.517,316.85,543.798,317.567,542.364z M252.647,576.213
		c1.705-0.072,0.259-1.796,0.15-2.891C251.262,573.392,252.612,575.182,252.647,576.213z M207.093,648.417
		c-1.262-0.719-1.035,0.969-1.373,1.857C206.894,650.914,206.711,649.219,207.093,648.417z M267.56,220.346
		c-0.923,0.461-0.516,0.739,0.115,1.263C268.173,221.075,268.262,220.762,267.56,220.346z M415.235,250.697
		c-0.752-0.111-0.266,0.981-0.395,1.527C415.591,252.335,415.106,251.243,415.235,250.697z M328.378,164.534
		c-0.174-0.339-0.397-1.042-0.658-0.366C327.77,164.912,327.831,165.312,328.378,164.534z M167.26,513.672
		c-0.821-0.133-0.303,1.033-0.438,1.622C167.643,515.426,167.124,514.26,167.26,513.672z M165.29,519.906
		c-0.073-0.115-0.124-0.276-0.228-0.329C164.441,519.6,165.202,520.678,165.29,519.906z M163.273,529.005
		c-0.067-0.105-0.113-0.254-0.209-0.3C162.489,528.72,163.199,529.72,163.273,529.005z M72.309,540.881
		c-0.145-0.36-0.395-0.321-0.516-0.059C72.009,541.16,72.224,541.384,72.309,540.881z M94.182,545.323
		c0.027,0.121,0.015,0.294,0.09,0.349C94.911,546.118,94.722,544.846,94.182,545.323z M254.338,578.879
		c-0.171-0.406-0.45-0.358-0.59-0.064C254.003,579.189,254.252,579.458,254.338,578.879z M327.133,317.287
		c0.135-0.318,0.234-0.501-0.211-0.571C326.788,317.032,326.692,317.216,327.133,317.287z M490.177,718.424
		c-0.81,0.308-0.615,0.639-0.227,1.205C490.82,719.336,490.551,719.02,490.177,718.424z M421.249,727.589
		c0.517,0.379,0.803-0.352,0.132-0.349C421.338,727.24,421.293,727.467,421.249,727.589z M372.611,807.741
		c0.35-0.142,0.311-0.383,0.06-0.505C372.345,807.449,372.12,807.657,372.611,807.741z M173.792,453.352
		c-0.308-0.132-0.478-0.231-0.543,0.204C173.555,453.686,173.727,453.783,173.792,453.352z M492.024,721.739
		c0.385-0.238,0.394-0.405,0.037-0.684C491.703,721.297,491.68,721.485,492.024,721.739z M457.138,288.155
		c-0.362,0.204-0.421,0.448-0.049,0.593C457.454,288.661,457.436,288.37,457.138,288.155z M449.106,295.331
		c-0.165,0.255-0.327,0.38,0.097,0.394C449.203,295.725,449.106,295.331,449.106,295.331z"/>
	<path fill="#FFFFFF" d="M24.419,927.086c-84.542-79.557,89.204-228.801,85.245-324.36c-0.77-3.217-4.838-5.92-1.897-8.987
		c2.416,1.878,1.194,8.675,7.475,4.659c0.435,11.628,14.306-13.652,10.223,7.094c-6.3,68.518,7.334,139.676,21.873,203.479
		c0.077,7.602-5.862,12.904,1.858,19.457c7.586,14.785-13.605,24.926-6.522,42.501c0.22,8.092-0.571,16.982-3.341,24.151
		c2.682-35.435-30.33-2.36-51.603-14.08c-17.126-3.685,7.89-28.767-13.762-24.531C35.023,862.942,13.018,888.006,24.419,927.086z"/>
	<path fill="#FFFFFF" d="M243.52,894.952c-7.23,46.931-36.082,87.922-29.583,136.595c8.736,17.34-15.992,10.72-30.745,9.036
		c19.284,28.873-32.329-20.295-40.006,1.01c20.419-4.873,29.632,7.143,43.08,17.753c36.539-30.16,26.939,13.741,32.516,40.223
		c-0.417,16.028-34.697,16.793-46.837,11.049c-29.244,19.682-76.308,28.579-108.994,12.211
		c-16.073-16.197,57.594-43.007,66.195-63.815c11.085-9.158,11.584-47.803,28.824-39.575c8.847-4.381,34.096,15.198,22.091,2.975
		c-47.687-10.404-8.735-21.869-18.206-76.584c-0.801-11.906-1.409-23.829-2.026-34.385c-12.484-5.421-18.288-7.576-2.029-3.62
		c10.262-26.682,17.131-46.135-2.108-12.153c-15.742,1.477-3.777-23.36-6.156-33.944c5.062-10.932,44.548,5.86,65.361-18.546
		c11.569-11.437,23.857-17.404,31.436,1.258c4.452,18.515,20.317,23.612,14.484,39.447c-17.909,13.171,1.142-1.83-7.73-6.673
		c-16.99,14.99-45.091,22.008-68.789,31.962c-5.769-13.014-5.858-27.49-12.975-39.6C175.432,940.126,194.977,910.644,243.52,894.952
		z M140.68,1042.585c-0.248,1.112,0.909-1.133-0.306,0.724C140.637,1042.262,139.521,1044.419,140.68,1042.585z M126.58,1066.036
		c24.593-6.961,30.821,22.547,56.264,3.538C164.819,1081.757,138.074,1047.521,126.58,1066.036z M74.939,1118.263
		c-4.522-1.683-8.664-3.415-13.063-1.452C62.488,1120.26,71.005,1117.356,74.939,1118.263z M179.945,1102.322
		c-3.725-2.665-13.039,3.032-18.604,3.356C164.743,1108.811,174.451,1102.599,179.945,1102.322z M155.46,1108.79
		c0.696-1.137-2.067-0.711-1.775,0C154.276,1108.79,154.868,1108.79,155.46,1108.79z M183.699,1100.628
		c-0.361-0.35-0.57-0.661-1.076-0.477C182.559,1100.94,183.022,1100.774,183.699,1100.628z M158.21,1107.349
		c-0.009,0.344,0.189,0.379,0.482,0.392C158.654,1107.397,158.597,1107.088,158.21,1107.349z"/>
	<path fill="#FFFFFF" d="M312.607,966.888c32.399,15.026,65.594,25.612,101.022,30.692c-33.781,9.715-5.463,11.082,13.25,16.388
		c-10.328-39.812-33.463-70.095-52.482-104.875c51.285,25.225,34.171-5.759,34-43.227c48.479,83.458,41.807-2.824,50.733,31.913
		c11.564,44.564,17.371,92.418,33.684,134.969c7.975,11.529-8.443-7.24-19.778-1.683c-33.619,14.9-2.193,1.558,13.715,6.678
		c7.302,5.323,14.278,9.494,16.428,18.329c10.468,18.643,8.301,40.581,18.698,59.619c26.265,32.198-3.052,56.955-37.86,47.703
		c-52.436-7.233-25.968-73.054-45.362-107.188c-5.671-5.81,2.446-15.694-9.819-16.381c-18.877-1.008-51.171-25.471-34.184,6.517
		C362.657,1025.539,327.394,1002.5,312.607,966.888z M502.522,1060.979c-8.745-19.631-54.301-8.307-49.42,17.865
		C456.085,1056.491,485.238,1052.599,502.522,1060.979z M446.466,1079.989c8.673,29.602,25.442-6.635,44.532,0.034
		c11.298-0.564,27.929,18.984,12.832,0.303C483.08,1064.293,464.581,1093.384,446.466,1079.989z M479.578,1151.154
		c13.288,7.412,38.319,6.201,43.434-2.095C508.622,1155.36,494.251,1155.757,479.578,1151.154z M435.448,1036.461
		c1.34-8.182,0.053-14.803-4.594-20.614C432.29,1022.431,430.859,1029.707,435.448,1036.461z M476.248,1150.579
		c0.322,0.136,0.503,0.24,0.571-0.215C476.497,1150.229,476.316,1150.123,476.248,1150.579z"/>
	<path fill="#DDDDDD" d="M162.508,439.952c-2.886-24.377-24.258,26.236,8.166,11.949c-5.323,6.499-25.576,1.587-22.41,16.704
		c-13.956,44.445,32.339-1.742,24.997,37.858c4.995,52.213-19.419,109.508,23.337,149.71c1.68,2.441,1.988,2.447,3.973,0.749
		c5.243,2.596,1.196-4.448,5.49-3.85c-0.743,27.322,4.798,3.837,12.033-7.868c41.955-38.785,7.608-88.184,15.503-137.761
		c5.442,106.858,39.563,64.273-23.391,175.891c-24.175-25.125-53.815-62.823-41.802-103.707
		c-3.351-28.088,19.141-120.555-30.402-77.551c-4.515,9.27-13.034-4.395-14.853,2.96c-5.919-8.581-17.803-20.626-2.171-8.041
		c28.918,15.873,18.422-17.751,2.323-27.371c-32.156-34.264-33.477,0.708-44.505,25.449c5.852-14.501,5.897-42.097,15.225-50.994
		c21.652,4.979,51.243,63.652,50.67,19.291c18.082-18.115-8.212-20.683,10.095-32.55c12.753-14.926,10.282-45.235,3.845-65.075
		c-2.151-20.623-11.198-25.762-31.222-22.754c0.053-12.691,27.672,2.193,26.752-12.434c-11.311-0.097,5.526-7.495,7.103-16.695
		c17.61-18.892,0.038-24.148-10.975-32.925c26.839,6.196,39.757,32.745,66.923,39.949c50.602-2.917,101.28-33.307,141.137-65.169
		c17.563-19.378,64.796-6.093,55.917,4.81c-12.519-19.545-49.261-11.67-59.458,5.506c1.583,15.018-18.436,21.495-12.614,36.114
		c2.634,15.106,2.681,17.877,19.034,15.638c26.314,3.402,23.901-2.129,50.225,11.506c10.167,5.373,43.514-3.645,21.019-4.758
		c7.697,0.082,14.083-7.343,19.506-2.33c-6.845,27.595-54.132,11.223-74.63,3.594c-10.899-2.1-33.022-9.399-36.503,5.489
		c-1.72,12.614-10.478-5.623-4.237,0.601c8.589-15.905-3.12-29.339-5.3-44.985c10.882,11.236,10.456-3.806,15.218-11.602
		c2.79-15.221-24.345,13.461-33.073,16.072c-32.119,14.199-77.247,45.661-104.688,29.573
		c-45.379-17.933-29.931-42.282-52.185,19.253c-2.727,13.775,9.641,21.838,14.697,33.187c-13.856-3.176,1.934,25.542-4.832,35.489
		C157.355,419.786,182.201,436.954,162.508,439.952z"/>
	<path fill="#DDDDDD" d="M258.607,866.704c-30.431-76.116-43.903,8.167-102.044-9.724c-11.111-3.219-13.627,43.113-0.885,38.689
		c19.337-34.103,12.293-14.509,2.128,12.159c-29.768-1.355-11.181-36.748-15.082-56.703c4.192-7.906,13.854-12.816,6.465-22.696
		c-7.687-6.63-1.789-11.797-1.847-19.458c-13.949-60.746-26.672-128.164-22.738-193.593c5.247-36.498-7.433-1.365-16.84-21.637
		c-9.976,0.376-0.336-21.677,7.843-25.688c-10.847,33.19,5.462,30.02,17.75,3.497c-14.307,70.506,3.422,156.764,17.046,215.619
		c-10.878,12.198,23.78,30.297,9.014,31.754c-4.206-0.33-5.674,1.916-4.705,5.472c-4.298,56.953,52.086,16.788,74.155,2.397
		c11.277-18.375-7.164-15.35-9.505-34.731c20.13,9.906,2.455-31.31,3.921-41.456c5.757-12.577,15.924-42.911,22.631-63.941
		C228.86,770.126,225.905,785.874,258.607,866.704z"/>
	<path fill="#DDDDDD" d="M247.492,880.931c2.777-2.292,6.936-5.994,8.748-0.767c-11.876,24.596-49.02,25.855-72.366,36.52
		c-10.605-7.835-8.84-33.169-12.556-47.106c7.123,12.107,7.212,26.583,12.981,39.597
		C201.267,901.568,245.821,888.15,247.492,880.931z"/>
	<path fill="#DDDDDD" d="M184.555,1040.934c39.487,3.195,29.811,1.613,1.712,18.407c-13.148-9.583-21.877-23.323-41.894-17.45
		C146.92,1018.943,200.643,1069.247,184.555,1040.934z"/>
	<path fill="#DDDDDD" d="M500.005,1046.796c-12.55-8.279-27.864-17.36-43.68-4.752c3.663-12.731,33.091-15.841,39.56-3.423
		C473.407,1001.353,497.727,1021.175,500.005,1046.796z"/>
	<path fill="#DDDDDD" d="M81.544,636.996c-7.21-3.072-13.274-23.685-8.851-34.486c1.33,7.038,1.839,14.338,3.736,21.218
		c1.937,6.608,8.057,8.378,12.967,3.776C102.976,625.052,89.645,639.525,81.544,636.996z"/>
	<path fill="#DDDDDD" d="M183.488,1027.019c-9.936-7.561-21.259-6.041-31.999-10.211
		C161.662,1015.301,177.652,1016.963,183.488,1027.019z"/>
	<path fill="#DDDDDD" d="M477.42,353.945c1.892-5.547,14.191-9.137,15.749-19.845C495.845,344.345,486.483,351.44,477.42,353.945z"
		/>
	<path fill="#DDDDDD" d="M53.869,546.772c5.337-3.39,10.778-6.161,17.335-2.282C65.479,545.102,59.915,549.071,53.869,546.772z"/>
	<path fill="#DDDDDD" d="M248.352,76.649c-1.206,3.757,1.755,13.644-2.47,13.739C246.909,86.036,244.327,79.27,248.352,76.649z"/>
	<path fill="#DDDDDD" d="M468.563,393.08c2.643,1.67-1.831,2.607-3.43,1.257C466.276,393.919,467.419,393.5,468.563,393.08z"/>
	<path fill="#FFFFFF" d="M212.407,1044.944c-1.606-0.558-0.778-0.586,0.368-0.908
		C212.637,1044.332,212.514,1044.635,212.407,1044.944z"/>
	<path fill="#FFFFFF" d="M496.111,355.605c-0.558,0.549-0.881,1.796-1.696,1.066C494.979,355.682,495.09,354.032,496.111,355.605z"
		/>
	<path fill="#FFFFFF" d="M258.487,865.955c-0.313-0.687-0.626-1.373-0.94-2.06C257.861,864.582,258.174,865.268,258.487,865.955z"/>
	<path fill="#FFFFFF" d="M186.573,206.927c1.221,1.15,0.762,0.975-0.565,0.655C186.182,207.352,186.371,207.133,186.573,206.927z"/>
	<path fill="#FFFFFF" d="M25.26,926.509c0,0.408,0,0.816,0,1.224C24.404,927.22,24.332,926.976,25.26,926.509z"/>
	<path fill="#FFFFFF" d="M312.125,967.377c-0.099-0.36-0.198-0.719-0.297-1.079C312.382,966.656,312.816,966.933,312.125,967.377z"
		/>
	<path fill="#FEFEFE" d="M487.558,1013.122c-12.858-35.399-18.988-77.532-28.437-115.338c-5.628-16.646,14.361-35.729-2.18-49.882
		c-17.88-21.485-39.521-44.284-48.498-70.51c32.954,46.126,83.864,73.773,123.007,113.825
		C582.86,935.341,557.101,1013.759,487.558,1013.122z"/>
	<path fill="#DDDDDD" d="M408.448,777.389c3.656,41.627-3.838,37.956-5.879,1.778c-22.78-51.971-38.263-109.15-50.206-164.551
		c-19.75-3.623-30.149-20.905-43.75-34.111c-3.584,16.298,9.126,14.489,15.806,21.907c-44.546,0.018-67.615-56.708-80.909-92.838
		c-5.751-30.295,23.592,29.766,40.177,26.912c22.442,34.882,48.465,79.992,98.127,81.256c-5.422-11.103-15.157-22.515-8.791-35.218
		c5.069,19.696,12.991,36.763,15.858,53.881c9.798,12.901,39,79.63,28.686,63.646C310.744,495.498,377.85,713.557,408.448,777.389z
		 M254.434,522.099c-1.435,32.837,74.012,101.261,41.097,41.238C288.379,535.689,271.437,540.109,254.434,522.099z"/>
	<path fill="#DDDDDD" d="M462.904,870.192c-12.938,52.928-35.689,26.823-54.503-4.332c0.905,33.156,14.991,70.34-31.9,43.286
		c-14.828-10.014,21.781,2.234,29.855,3.956c-1.09-15.849-2.082-30.253-3.074-44.656c-10.813,3.764-43.956-4.324-52.609-21.652
		c9.523-7.922,15.083,7.915,24.815,8.788c42.82,22.213,50.901-36.183,55.791-27.01c3.812,17.516-28.269,28.716-15.118,41.034
		c8.253,5.831,21.85,32.598,31.553,21.515C460.107,879.806,450.51,836.98,462.904,870.192z"/>
	<path fill="#DDDDDD" d="M352.645,373.059c-10.818,30.86-36.872,52.289-40.279,81.802c1.988,27.916-6.527,69.698,36.056,59.767
		c-23.889,5.366-34.426,12.992-48.085-7.423c6.69-1.755,9.366,7.179,16.377,6.535c-3.196-4.787-5.501-8.833-11.21-10.47
		c-29.175-9.446-29.605-12.058,1.148-6.393c0.142-9.526,4.915-26.101-3.321-32.634c-12.186,0.609-36.592-14.632-42.721-1.389
		c0.54,13.792-5.289,29.898,13.989,28.802c-13.512-1.819-34.953,3.62-44.53-2.028c22.569,4.068,25.818-5.353,26.351-26.366
		c0.398-7.338-1.376-8.858-8.928-9.334c5.947-2.893,39.285,6.035,55.545,7.038c-6.551-6.249,2.884-7.286,5.912-11.884
		c3.063-3.212,4.182-6.7-1.812-9.107c3.626-6.161,9.9-11.235,6.685-19.686c-5.053,0.003-7.651-1.077-1.69-4.065
		C332.031,408.433,338.25,385.909,352.645,373.059z"/>
	<path fill="#DDDDDD" d="M385.659,459.005c-5.109-11.579,8.646-31.332-1.986-44.18c-14.367-17.177-31.257-78.873-44.025-33.544
		c-7.201-13.206-5.635-34.462-24.072-27.255c1.766-2.255,6.021-2.97,8.501-2.131c-4.723-19.831-21.393-47.994-0.364-62.763
		c-19.591,21.302,22.998,93.757,18.622,62.929c16.585,15.687,3.403-45.604,11.159-2.447c3.868,35.879,49.145,50.677,37.598,87.647
		c10.802-7.901,22.244-12.405,34.77-7.853C404.029,428.744,390.711,438.884,385.659,459.005z"/>
	<path fill="#FEFEFE" d="M383.43,195.04c18.445,7.734,38.108,14.339,52.531,28.909c12.725,7.216,15.615,50.76-2.155,36.45
		C437.834,234.25,397.36,215.252,383.43,195.04z"/>
	<path fill="#DDDDDD" d="M226.865,464.842c-1.415,9.256,2.244,24.94-7.981,29.475c-11.537-1.82-35.025,7.238-40.416-4.441
		c2.296-13.214-8.449-43.431,11.93-42.804C208.72,444.984,231.94,438.166,226.865,464.842z M211.204,470.375
		c9.545,0.91,12.757-13.705,3.267-19.954c-16.328,1.133-37.768-3.77-31.957,19.728c-7.642,25.979,16.181,17.639,33.22,17.725
		C224.849,485.541,222.071,468.703,211.204,470.375z"/>
	<path fill="#DDDDDD" d="M242.021,632.856c33.836,40.887,52.376,90.094,75.444,137.347
		C290.714,731.168,262.654,676.316,242.021,632.856z"/>
	<path fill="#DDDDDD" d="M353.518,507.981c23.187-9.19,37.538,16.466,37.4,36.233c35.957-17.546,33.78-59.325-2.574-75.76
		c36.553-1.389,26.982,54.326,47.321,38.48c-15.08,14.656-31.153,27.932-43.409,45.474
		C379.404,532.338,392.652,511.323,353.518,507.981z"/>
	<path fill="#DDDDDD" d="M224.388,319.129c12.058-37.643-54.884-32.792-48.654-72.904c-0.599,20.465,53.191,65.82,47.617,31.566
		c5.084,1.263,1.269,14.606,5.213,18.593c32.722-1.803,67.955-36.448,97.925-45.033c-30.33,22.046-47.375,27.465-90.6,48.403
		C222.079,298.942,230.174,315.362,224.388,319.129z"/>
	<path fill="#DDDDDD" d="M209.515,397.959c15.667-18.433-2.193-29.896,5.5-40.755c4.47-13.046-15.361-22.764-14.369-36.205
		c6.218,5.481,9.975,13.235,14.77,19.923c6.596,11.051,16.338-5.689,23.522-8.786c11.868-6.494-2.736,6.94-6.618,10.344
		c-6.341,7.354-11.976,18.701-3.931,26.446C212.116,360.86,226.514,398.463,209.515,397.959z"/>
	<path fill="#DDDDDD" d="M238.521,264.98c24.969-14.115,44.1-35.392,66.62-52.745c2.935-8.309-4.422-22.24-1.6-33.193
		c7.954,24.339,7.023,27.435,35.224,18.35c-23.84,3.037-66.523,50.108-96.923,70.431c-11.816,6.1-1.834,14.32-5.766,24.376
		C227.103,285.982,233.624,272.207,238.521,264.98z"/>
	<path fill="#DDDDDD" d="M115.424,567.872c13.242-25.549,32.773-48.563,50.023-71.608
		C161.671,521.357,132.795,547.851,115.424,567.872z"/>
	<path fill="#DDDDDD" d="M384.627,554.483c-5.783,42.103-75.944,48.771-73.698,3.059
		C326.587,607.428,362.885,585.837,384.627,554.483z"/>
	<path fill="#DDDDDD" d="M402.39,423.826c17.636-16.896,48.596-21.019,70.153-9.286C449.341,413.245,424.115,415.975,402.39,423.826
		z"/>
	<path fill="#FEFEFE" d="M368.637,199.748c-56.309-41.926-7.029-19.375,18.331,12.217c-4.481,1.693-19.843-5.823-21.498-9.304
		C368.923,203.381,374.736,201.366,368.637,199.748z"/>
	<path fill="#DDDDDD" d="M423.678,709.832c7.786,19.16,17.031,38.443,24.774,57.23C421.882,737.781,431.897,738.162,423.678,709.832
		z"/>
	<path fill="#FEFEFE" d="M448.836,296.33c14.631,9.213,27.583,31.252,23.876,43.289C464.559,324.836,456.948,311.036,448.836,296.33
		z"/>
	<path fill="#FEFEFE" d="M439.943,335.555c11.63-0.165,15.378,19.998,8.863,30.797C446.065,355.592,441.798,346.334,439.943,335.555
		z"/>
	<path fill="#DDDDDD" d="M408.422,233.086c-23.543-15.075-50.691,6.374-70.092,9.742
		C358.698,231.511,387.568,214.762,408.422,233.086z"/>
	<path fill="#DDDDDD" d="M266.824,497.777c1.779,15.414,23.835,20.399,15.387,33.263
		C277.378,520.174,258.997,511.262,266.824,497.777z"/>
	<path fill="#FEFEFE" d="M385.568,461.002c-5.527,9.159-15.754,13.229-17.407,24.739
		C356.013,502.021,372.458,450.681,385.568,461.002z"/>
	<path fill="#FEFEFE" d="M454.422,378.073c-7.13-7.178,4.881-14.931,3.68-23.834C458.369,327.051,469.176,373.524,454.422,378.073z"
		/>
	<path fill="#FEFEFE" d="M203.55,215.664c-17.749-4.749-7.768-25.049-0.638-35.188C202.861,192.264,194.017,203.364,203.55,215.664z
		"/>
	<path fill="#DDDDDD" d="M400.292,411.758c6.507-15.943,26.605-22.742,39.483-17.265C423.9,394.062,411.398,401.235,400.292,411.758
		z"/>
	<path fill="#DDDDDD" d="M222.612,236.887c7.82-40.401,2.358,8.087,14.962,27.052C231.091,257.477,227.289,245.199,222.612,236.887z
		"/>
	<path fill="#DDDDDD" d="M72.553,538.183c3.185-17.457,18.065-33.135-2.466-34.742C99.762,491.758,77.847,525.937,72.553,538.183z"
		/>
	<path fill="#DDDDDD" d="M291.092,375.777c12.942-3.9,29.071-17.976,38.604-15.583C316.559,363.718,308.366,377.819,291.092,375.777
		z"/>
	<path fill="#DDDDDD" d="M465.688,459.447c-6.659-7.696-13.336-15.411-19.365-22.378
		C456.623,438.459,466.601,448.526,465.688,459.447z"/>
	<path fill="#DDDDDD" d="M283.153,444.952c-59.487-1.271,12.722,1.96-11.667-11.423
		C279.766,432.102,280.777,433.121,283.153,444.952z"/>
	<path fill="#DDDDDD" d="M209.543,397.983c12.434,10.009-13.043,29.767-1.844,8.828
		C209.552,402.671,203.464,399.729,209.543,397.983z"/>
	<path fill="#DDDDDD" d="M419.655,267.858c7.875,10.393,9.599,23.964,11.79,36.174C425.893,292.892,423.196,279.565,419.655,267.858
		z"/>
	<path fill="#DDDDDD" d="M219.527,195.971c4.807,7.941,9.615,15.882,14.422,23.824C226.621,217.746,221.852,204.063,219.527,195.971
		z"/>
	<path fill="#DDDDDD" d="M255.664,583.849c0.994,7.048,10.562,19.279,6.625,23.818C258.689,600.316,256.326,591.77,255.664,583.849z
		"/>
	<path fill="#DDDDDD" d="M264.597,223.026c-8.028,7.021-24.064,6.678-29.104-1.241C244.159,229.604,255.03,226.034,264.597,223.026z
		"/>
	<path fill="#DDDDDD" d="M333.432,330.049c-5.399-2.926-1.856,7.269-2.266,9.932C326.963,334.332,325.255,307.966,333.432,330.049z"
		/>
	<path fill="#DDDDDD" d="M359.639,499.063c-0.484,4.918-12.118,10.977-7.02,11.02C341.412,513.221,355.942,500.849,359.639,499.063z
		"/>
	<path fill="#DDDDDD" d="M111.744,422.645c1.095,4.122,8.374,10.926,5.773,13.798C114.34,432.421,109.674,429.199,111.744,422.645z"
		/>
	<path fill="#FEFEFE" d="M208.35,212.902c-3.603-3.758-2.432-8.467-1.367-13.187C206.864,203.456,212.011,211.614,208.35,212.902z"
		/>
	<path fill="#DDDDDD" d="M172.957,282.823c-6.674-4.623-6.764-11.027-6.334-18.113C168.749,270.792,170.725,276.44,172.957,282.823z
		"/>
	<path fill="#DDDDDD" d="M209.57,421.573c3.927,6.768-4.206,10.072-3.459,15.808C201.895,435.471,209.076,426.443,209.57,421.573z"
		/>
	<path fill="#DDDDDD" d="M349.274,213.216c6.523,0.397,17.122-3.73,21.648-0.91C364.468,211.871,353.515,216.287,349.274,213.216z"
		/>
	<path fill="#FEFEFE" d="M364.341,457.986c-2.134,3.839-2.462,12.068-5.649,13.661C360.793,468.034,360.064,457.332,364.341,457.986
		z"/>
	<path fill="#FEFEFE" d="M177.665,118.818c2.426,2.158,11.264,3.057,9.215,6.522C184.61,123.209,175.939,121.729,177.665,118.818z"
		/>
	<path fill="#DDDDDD" d="M233.482,612.921c-0.209-4.575-0.418-9.15-0.616-13.485C237.45,606.511,237.64,609.053,233.482,612.921z"/>
	<path fill="#DDDDDD" d="M368.483,526.031c-3.974-2.18-7.948-4.36-11.923-6.54C361.538,518.798,366.746,521.222,368.483,526.031z"/>
	<path fill="#DDDDDD" d="M375.603,807.746c4.376,2.156,14.669,1.524,15.916,5.428C387.135,811.021,376.886,811.633,375.603,807.746z
		"/>
	<path fill="#DDDDDD" d="M314.299,544.337c-3.895,0.802-10.507,7.222-13.09,4.603C305.083,548.144,311.844,541.414,314.299,544.337z
		"/>
	<path fill="#DDDDDD" d="M92.352,543.165c-3.86-1.254-7.719-2.508-11.579-3.762C84.34,539.969,91.837,536.428,92.352,543.165z"/>
	<path fill="#FEFEFE" d="M206.027,85.397c2.845,0.172,8.757-3.239,9.939-0.739C213.11,84.536,206.707,88.721,206.027,85.397z"/>
	<path fill="#DDDDDD" d="M323.142,148.262c-1.704,3.18-0.603,12.496-4.502,11.853C320.396,156.674,320.035,149.878,323.142,148.262z
		"/>
	<path fill="#DDDDDD" d="M202.56,114.992c-1.446,2.774-0.162,11.291-3.982,10.024C198.327,121.36,200.64,117.879,202.56,114.992z"/>
	<path fill="#DDDDDD" d="M66.63,634.134c-2.6-1.914-10.39-2.297-9.925-5.419C59.323,630.601,67.807,630.684,66.63,634.134z"/>
	<path fill="#DDDDDD" d="M142.85,272.736c1.22,1.867,6.649,3.874,3.929,5.817C145.527,276.68,140.022,274.69,142.85,272.736z"/>
	<path fill="#DDDDDD" d="M146.516,559.958c-1.385,2.803-0.09,11.364-3.618,10.492C144.08,566.957,145.398,563.436,146.516,559.958z"
		/>
	<path fill="#DDDDDD" d="M334.39,246.098c-2.12,0.692-5.36,5.336-6.72,2.502C329.755,247.976,333.097,243.438,334.39,246.098z"/>
	<path fill="#DDDDDD" d="M435.616,308.885c1.491,2.043,3.796,4.091,4.88,6.128C439.097,312.986,436.318,310.87,435.616,308.885z"/>
	<path fill="#DDDDDD" d="M368.637,199.748c6.098,1.613,0.288,3.641-3.165,2.908C366.527,201.687,367.582,200.717,368.637,199.748z"
		/>
	<path fill="#DDDDDD" d="M431.671,303.829c1.041,1.723,3.385,3.578,3.755,5.238C434.421,307.356,431.883,305.456,431.671,303.829z"
		/>
	<path fill="#DDDDDD" d="M159.728,537.145c-1.396,1.906-1.418,8.201-4.334,5.924C156.838,541.538,158.151,537.211,159.728,537.145z"
		/>
	<path fill="#DDDDDD" d="M440.603,314.888c1.782,1.403,4.628,2.685,5.871,4.134C444.67,317.615,441.939,316.358,440.603,314.888z"/>
	<path fill="#DDDDDD" d="M233.57,613.011c-1.368,1.915-2.68,4.219-4.07,5.936C230.878,617.087,232.157,614.501,233.57,613.011z"/>
	<path fill="#DDDDDD" d="M247.533,681.972c0.763-2.947-1.688-10.177,1.238-10.713C248.366,674.827,247.921,678.41,247.533,681.972z"
		/>
	<path fill="#DDDDDD" d="M330.768,178.53c0.111,1.845,3.191,5.467,0.634,5.942C331.184,182.54,327.977,179.125,330.768,178.53z"/>
	<path fill="#DDDDDD" d="M151.367,551.827c1.143-1.43,2.023-5.783,3.38-5.661C153.586,547.69,152.69,551.447,151.367,551.827z"/>
	<path fill="#DDDDDD" d="M329.677,168.811c-0.143,1.636,2.113,5.265-0.126,5.395C329.601,172.475,327.001,168.679,329.677,168.811z"
		/>
	<path fill="#DDDDDD" d="M178.267,622.838c-0.427-1.497-3.112-3.658-0.782-4.306C177.929,620.038,180.63,622.187,178.267,622.838z"
		/>
	<path fill="#DDDDDD" d="M415.781,241.484c-0.138,1.6,2.053,5.157,0.048,5.432C415.876,245.225,413.317,241.571,415.781,241.484z"/>
	<path fill="#DDDDDD" d="M125.096,507.467c0.018-1.291-1.082-3.179,0.88-2.97C125.887,505.723,126.959,507.693,125.096,507.467z"/>
	<path fill="#DDDDDD" d="M251.513,105.99c-0.997-1.332-1.987-2.711-2.986-4.017C249.478,103.314,250.699,104.657,251.513,105.99z"/>
	<path fill="#DDDDDD" d="M341.598,339.888c0.547,1.716,3.639,4.221,0.636,4.595C342.124,342.991,341.34,341.256,341.598,339.888z"/>
	<path fill="#FEFEFE" d="M499.13,729.507c0.825,1.565,4.038,3.132,2.141,4.716C500.811,732.768,497.702,730.584,499.13,729.507z"/>
	<path fill="#DDDDDD" d="M346.971,201.173c-0.538-1.204-2.807-2.643-0.815-3.313C346.523,198.993,348.68,200.575,346.971,201.173z"
		/>
	<path fill="#DDDDDD" d="M397.532,402.971c-0.266,1.165-0.531,2.33-0.797,3.494C394.291,405.912,396.864,404.288,397.532,402.971z"
		/>
	<path fill="#DDDDDD" d="M162.431,531.642c-0.516,1.029-0.198,3.435-1.767,2.502C161.211,533.226,161.029,530.838,162.431,531.642z"
		/>
	<path fill="#DDDDDD" d="M317.567,542.364c-0.717,1.434-1.216,1.153-1.903-0.046C315.994,541.3,316.883,541.34,317.567,542.364z"/>
	<path fill="#DDDDDD" d="M252.647,576.213c-0.035-1.031-1.385-2.82,0.15-2.891C252.906,574.417,254.352,576.141,252.647,576.213z"/>
	<path fill="#FEFEFE" d="M498.49,730.005c-0.706-0.884-1.271-2.491-2.021-2.972C497.042,727.986,499.984,729.208,498.49,730.005z"/>
	<path fill="#DDDDDD" d="M207.093,648.417c-0.382,0.801-0.199,2.497-1.373,1.857C206.058,649.386,205.831,647.698,207.093,648.417z"
		/>
	<path fill="#DDDDDD" d="M244.294,329.754c1.059-0.384,2.435-2.189,3.357-1.679C246.588,328.478,245.2,330.61,244.294,329.754z"/>
	<path fill="#DDDDDD" d="M412.69,236.815c2.611,2.597,0.642,4.061-0.348,0.357C412.342,237.172,412.69,236.815,412.69,236.815z"/>
	<path fill="#FEFEFE" d="M461.471,292.027c-0.641-0.694-2.545-3.091-2.517-2.892C459.775,289.307,463.016,291.227,461.471,292.027z"
		/>
	<path fill="#DDDDDD" d="M203.54,112.976c0.521-0.701,0.827-2.107,1.554-0.956C204.566,112.368,203.986,112.611,203.54,112.976z"/>
	<path fill="#DDDDDD" d="M267.56,220.346c0.702,0.417,0.613,0.73,0.114,1.263C267.044,221.085,266.637,220.806,267.56,220.346z"/>
	<path fill="#DDDDDD" d="M222.464,237.034c-1.951-1.394-1.274-2.068,0.147-0.145C222.612,236.887,222.464,237.034,222.464,237.034z"
		/>
	<path fill="#DDDDDD" d="M402.717,424.145c-0.74,0.435-1.582,1.893-2.285,1.743C401.173,425.431,402.017,423.454,402.717,424.145z"
		/>
	<path fill="#DDDDDD" d="M412.342,237.172c-0.408-0.732-2.229-1.656-1.696-2.333C411.101,235.598,413.115,236.459,412.342,237.172z"
		/>
	<path fill="#DDDDDD" d="M275.505,214.949c0.686-0.649,1.344-1.372,2.032-1.974C276.837,213.598,276.211,214.49,275.505,214.949z"/>
	<path fill="#DDDDDD" d="M415.235,250.697c-0.129,0.546,0.357,1.637-0.395,1.527C414.968,251.678,414.483,250.587,415.235,250.697z"
		/>
	<path fill="#DDDDDD" d="M255.441,584.036c-1.342-2.501,0.123-3.198,0.221-0.185C255.664,583.849,255.441,584.036,255.441,584.036z"
		/>
	<path fill="#DDDDDD" d="M328.378,164.534c-0.547,0.777-0.608,0.378-0.658-0.366C327.981,163.493,328.205,164.195,328.378,164.534z"
		/>
	<path fill="#DDDDDD" d="M219.532,195.968c-0.16-0.789-1.467-2.101-0.188-2.174C219.41,194.518,219.457,195.26,219.532,195.968z"/>
	<path fill="#DDDDDD" d="M247.525,681.964c-0.226,0.811,0.369,2.734-0.853,2.1C246.949,683.362,247.271,682.662,247.525,681.964z"/>
	<path fill="#DDDDDD" d="M271.537,615.958c-0.813-0.215-2.712,0.391-2.082-0.836C270.154,615.382,270.851,615.761,271.537,615.958z"
		/>
	<path fill="#DDDDDD" d="M167.26,513.672c-0.135,0.589,0.383,1.755-0.438,1.622C166.957,514.705,166.439,513.539,167.26,513.672z"/>
	<path fill="#DDDDDD" d="M165.29,519.906c-0.088,0.771-0.849-0.306-0.228-0.329C165.167,519.63,165.217,519.791,165.29,519.906z"/>
	<path fill="#DDDDDD" d="M252.518,106.983c0.438,0.114,0.877,0.228,1.315,0.342C253.385,107.228,252.952,107.017,252.518,106.983z"
		/>
	<path fill="#DDDDDD" d="M202.501,114.941c0.32-0.669,0.767-1.327,1.016-1.984C203.142,113.579,202.928,114.542,202.501,114.941z"/>
	<path fill="#DDDDDD" d="M368.62,525.873c0.438,0.274,1.631,0.338,0.983,0.855C369.34,526.475,368.31,526.201,368.62,525.873z"/>
	<path fill="#DDDDDD" d="M163.273,529.005c-0.075,0.716-0.784-0.284-0.209-0.3C163.16,528.75,163.206,528.899,163.273,529.005z"/>
	<path fill="#DDDDDD" d="M399.933,400.329c0.843-1.829,0.613-2.934,1.326-2.414C401.074,398.298,400.861,398.667,399.933,400.329z"
		/>
	<path fill="#DDDDDD" d="M290.535,200.974c0.67-0.328,1.339-0.657,2.009-0.985C291.883,200.197,291.165,200.653,290.535,200.974z"/>
	<path fill="#DDDDDD" d="M72.309,540.881c-0.085,0.502-0.3,0.279-0.516-0.059C71.915,540.561,72.163,540.521,72.309,540.881z"/>
	<path fill="#DDDDDD" d="M352.361,372.816c0.586-1.713,1.316-1.081,0.282,0.242C352.645,373.059,352.361,372.816,352.361,372.816z"
		/>
	<path fill="#DDDDDD" d="M94.182,545.323c0.54-0.477,0.729,0.795,0.09,0.349C94.197,545.617,94.209,545.443,94.182,545.323z"/>
	<path fill="#DDDDDD" d="M148.547,556.983c0.378-0.61,0.588-1.654,1.021-1.982C149.253,555.669,148.767,556.326,148.547,556.983z"/>
	<path fill="#DDDDDD" d="M134.511,568.955c-0.11,0.464-0.22,0.929-0.33,1.393C134.271,569.874,134.501,569.41,134.511,568.955z"/>
	<path fill="#DDDDDD" d="M422.676,707.85c0.169,0.736,1.388,1.751,0.67,2.271C423.168,709.384,421.917,708.361,422.676,707.85z"/>
	<path fill="#DDDDDD" d="M254.338,578.879c-0.086,0.578-0.334,0.31-0.59-0.065C253.888,578.521,254.166,578.473,254.338,578.879z"/>
	<path fill="#DDDDDD" d="M417.627,263.886c0.186,0.704,1.476,1.721,0.753,2.195C418.215,265.382,417.129,264.426,417.627,263.886z"
		/>
	<path fill="#DDDDDD" d="M271.518,615.98c0.44,0.118,0.88,0.236,1.32,0.353C272.387,616.231,271.954,616.026,271.518,615.98z"/>
	<path fill="#DDDDDD" d="M228.528,619.969c-0.237,0.481-0.137,1.672-0.762,1.075C228.021,620.684,228.277,620.328,228.528,619.969z"
		/>
	<path fill="#DDDDDD" d="M181.503,627.001c-0.205-0.68-1.231-1.543-0.901-2.118C180.852,625.591,181.444,626.327,181.503,627.001z"
		/>
	<path fill="#DDDDDD" d="M327.133,317.287c-0.441-0.07-0.345-0.255-0.211-0.571C327.367,316.786,327.268,316.969,327.133,317.287z"
		/>
	<path fill="#DDDDDD" d="M490.177,718.424c0.375,0.596,0.643,0.912-0.227,1.204C489.561,719.063,489.367,718.732,490.177,718.424z"
		/>
	<path fill="#DDDDDD" d="M346.512,215.956c-0.355,0.25-0.71,0.5-1.065,0.75C345.8,216.424,346.276,216.258,346.512,215.956z"/>
	<path fill="#FEFEFE" d="M494.906,723.172c0.07,1.159,0.139,2.318,0.208,3.472C495.049,725.51,494.904,724.132,494.906,723.172z"/>
	<path fill="#DDDDDD" d="M421.249,727.589c0.044-0.123,0.089-0.349,0.132-0.349C422.052,727.237,421.766,727.969,421.249,727.589z"
		/>
	<path fill="#DDDDDD" d="M395.576,776.915c0.203,0.683,1.218,1.549,0.894,2.126C396.25,778.344,395.464,777.547,395.576,776.915z"/>
	<path fill="#FEFEFE" d="M385.659,459.005c1.654-0.184,0.199,0.964-0.091,1.997C384.521,460.465,385.255,459.766,385.659,459.005z"
		/>
	<path fill="#DDDDDD" d="M153.544,790.95c-0.354-0.651-0.653-1.386-1.023-1.975C152.888,789.615,153.147,790.45,153.544,790.95z"/>
	<path fill="#DDDDDD" d="M372.611,807.741c-0.49-0.084-0.266-0.293,0.06-0.505C372.921,807.359,372.961,807.599,372.611,807.741z"/>
	<path fill="#DDDDDD" d="M173.792,453.352c-0.065,0.431-0.237,0.335-0.543,0.204C173.315,453.12,173.485,453.22,173.792,453.352z"/>
	<path fill="#DDDDDD" d="M220.516,273.986c0.646,0.362,1.497,0.611,1.995,1.005C221.839,274.68,221.178,274.207,220.516,273.986z"/>
	<path fill="#DDDDDD" d="M418.711,265.826c0.159,0.698,1.11,1.637,0.761,2.186C419.283,267.31,417.987,266.299,418.711,265.826z"/>
	<path fill="#DDDDDD" d="M247.535,100.962c-0.135-0.137-0.269-0.274-0.404-0.411C247.421,100.536,247.441,100.813,247.535,100.962z"
		/>
	<path fill="#DDDDDD" d="M247.522,100.975c0.345,0.33,0.663,0.682,1.011,0.992C248.181,101.637,247.879,101.262,247.522,100.975z"/>
	<path fill="#DDDDDD" d="M251.552,105.951c0.356,0.331,0.626,0.765,0.991,1.008C252.228,106.591,251.724,106.325,251.552,105.951z"
		/>
	<path fill="#FEFEFE" d="M383.551,194.952c-1.311-0.433,0.13-1.124-0.12,0.088C383.43,195.04,383.551,194.952,383.551,194.952z"/>
	<path fill="#DDDDDD" d="M292.545,199.989c0.196-0.423,0.202-0.467-0.034-0.033C292.511,199.955,292.545,199.989,292.545,199.989z"
		/>
	<path fill="#DDDDDD" d="M289.535,201.974c0.329-0.351,0.699-0.656,0.989-1.011C290.195,201.313,289.826,201.618,289.535,201.974z"
		/>
	<path fill="#DDDDDD" d="M289.524,201.963c-0.328,0.353-0.705,0.654-0.988,1.012C288.865,202.623,289.233,202.318,289.524,201.963z"
		/>
	<path fill="#DDDDDD" d="M287.52,203.962c-0.33,0.336-0.661,0.671-0.991,1.007C286.858,204.616,287.244,204.321,287.52,203.962z"/>
	<path fill="#DDDDDD" d="M286.529,204.969c-0.329,0.339-0.658,0.678-0.987,1.016C285.769,205.612,286.207,205.335,286.529,204.969z"
		/>
	<path fill="#DDDDDD" d="M284.52,206.961c0.367-0.318,0.649-0.753,1.023-0.976C285.18,206.307,284.888,206.706,284.52,206.961z"/>
	<path fill="#DDDDDD" d="M283.555,207.989c-0.342,0.327-0.683,0.653-1.025,0.98C282.903,208.665,283.176,208.117,283.555,207.989z"
		/>
	<path fill="#DDDDDD" d="M282.529,208.969c-0.334,0.332-0.669,0.664-1.003,0.996C281.874,209.66,282.185,209.301,282.529,208.969z"
		/>
	<path fill="#DDDDDD" d="M281.526,209.965c-0.151,0.139-0.301,0.278-0.452,0.417C281.068,210.074,281.328,210.046,281.526,209.965z"
		/>
	<path fill="#DDDDDD" d="M277.524,212.962c0.152-0.137,0.304-0.274,0.455-0.411C277.987,212.83,277.757,212.946,277.524,212.962z"/>
	<path fill="#DDDDDD" d="M275.549,214.993c-0.383,0.258-0.733,1.131-1.1,0.908C274.845,215.62,275.154,215.116,275.549,214.993z"/>
	<path fill="#DDDDDD" d="M346.543,215.987c0.137-0.134,0.56-0.654,0.323-0.179C346.809,215.894,346.486,215.904,346.543,215.987z"/>
	<path fill="#DDDDDD" d="M274.58,216.03c-0.527,0.411-0.577,0.378-0.13-0.129C274.449,215.9,274.58,216.03,274.58,216.03z"/>
	<path fill="#DDDDDD" d="M271.466,217.915c0.549-0.437,0.597-0.401,0.123,0.124C271.589,218.039,271.466,217.915,271.466,217.915z"
		/>
	<path fill="#DDDDDD" d="M271.589,218.039c-0.395,0.245-0.773,1.128-1.142,0.861C270.844,218.659,271.223,217.834,271.589,218.039z"
		/>
	<path fill="#DDDDDD" d="M270.59,219.041c-0.545,0.419-0.599,0.382-0.141-0.141C270.447,218.899,270.59,219.041,270.59,219.041z"/>
	<path fill="#DDDDDD" d="M264.463,222.891c0.525-0.416,0.572-0.376,0.133,0.135C264.597,223.026,264.463,222.891,264.463,222.891z"
		/>
	<path fill="#DDDDDD" d="M359.46,498.887c0.536-0.411,0.596-0.358,0.176,0.175C359.639,499.063,359.46,498.887,359.46,498.887z"/>
	<path fill="#DDDDDD" d="M162.551,439.996c-0.437,0.421-0.45,0.406-0.043-0.044C162.508,439.952,162.551,439.996,162.551,439.996z"
		/>
	<path fill="#DDDDDD" d="M400.595,426.047c-0.51,0.396-0.566,0.348-0.161-0.159C400.432,425.887,400.595,426.047,400.595,426.047z"
		/>
	<path fill="#DDDDDD" d="M111.532,489.967c-0.145-0.134-0.289-0.268-0.434-0.403C111.389,489.538,111.445,489.762,111.532,489.967z"
		/>
	<path fill="#DDDDDD" d="M252.526,506.971c0.146,0.137,0.293,0.274,0.439,0.411C252.67,507.407,252.621,507.171,252.526,506.971z"/>
	<path fill="#DDDDDD" d="M397.527,402.967c0.147-0.141,0.295-0.281,0.442-0.422C397.981,402.838,397.772,402.92,397.527,402.967z"/>
	<path fill="#DDDDDD" d="M159.374,536.795c0.634-0.443,0.729-0.308,0.352,0.348C159.728,537.145,159.374,536.795,159.374,536.795z"
		/>
	<path fill="#DDDDDD" d="M492.024,721.739c-0.343-0.254-0.32-0.442,0.037-0.684C492.417,721.334,492.409,721.501,492.024,721.739z"
		/>
	<path fill="#FEFEFE" d="M494.879,723.126c-0.405,0.594-0.68,1.415-1.193,0.515C494.08,723.436,494.64,723.398,494.879,723.126z"/>
	<path fill="#FEFEFE" d="M496.564,726.935c-0.506-0.064-1.072-0.393-1.45-0.292C496.14,725.432,496.021,726.494,496.564,726.935z"/>
	<path fill="#DDDDDD" d="M146.539,559.982c0.134-0.137,0.267-0.275,0.401-0.412C146.978,559.878,146.622,559.871,146.539,559.982z"
		/>
	<path fill="#DDDDDD" d="M423.41,730.072c-0.409-0.589-0.325-0.679,0.268-0.271C423.68,729.799,423.41,730.072,423.41,730.072z"/>
	<path fill="#DDDDDD" d="M148.517,556.953c-0.138,0.135-0.551,0.645-0.318,0.168C148.254,557.036,148.574,557.033,148.517,556.953z"
		/>
	<path fill="#DDDDDD" d="M448.642,766.87c0.439,0.548,0.371,0.603-0.19,0.19C448.451,767.062,448.642,766.87,448.642,766.87z"/>
	<path fill="#DDDDDD" d="M393.463,775.046c-0.459-0.531-0.413-0.572,0.131-0.131C393.593,774.915,393.463,775.046,393.463,775.046z"
		/>
	<path fill="#DDDDDD" d="M393.593,774.915c0.247,0.39,1.026,0.747,0.884,1.115C394.227,775.642,393.367,775.278,393.593,774.915z"/>
	<path fill="#DDDDDD" d="M394.582,775.924c0.248,0.385,1.035,0.737,0.885,1.1C395.218,776.639,394.443,776.287,394.582,775.924z"/>
	<path fill="#DDDDDD" d="M229.549,618.994c-0.341,0.327-0.683,0.65-1.02,0.975C228.901,619.666,229.173,619.118,229.549,618.994z"/>
	<path fill="#DDDDDD" d="M210.515,367.95c-0.215,0.398-0.214,0.428,0.034,0.034C210.549,367.984,210.515,367.95,210.515,367.95z"/>
	<path fill="#DDDDDD" d="M396.643,778.87c0.442,0.531,0.375,0.577-0.173,0.17C396.469,779.041,396.643,778.87,396.643,778.87z"/>
	<path fill="#DDDDDD" d="M399.442,781.065c-0.499-0.572-0.429-0.62,0.175-0.176C399.617,780.89,399.442,781.065,399.442,781.065z"/>
	<path fill="#DDDDDD" d="M399.617,780.89c0.245,0.402,1.172,0.785,0.83,1.154C400.197,781.644,399.26,781.26,399.617,780.89z"/>
	<path fill="#DDDDDD" d="M180.428,625.057c-0.425-0.572-0.376-0.636,0.175-0.173C180.603,624.883,180.428,625.057,180.428,625.057z"
		/>
	<path fill="#DDDDDD" d="M153.51,790.984c0.422,0.205,0.465,0.21,0.034-0.035C153.544,790.95,153.51,790.984,153.51,790.984z"/>
	<path fill="#DDDDDD" d="M458.798,288.895c0.165-0.085,0.321-0.056,0.413,0.113C459.012,289.153,458.895,289.121,458.798,288.895z"
		/>
	<path fill="#DDDDDD" d="M457.138,288.155c0.297,0.215,0.316,0.506-0.049,0.593C456.717,288.603,456.777,288.359,457.138,288.155z"
		/>
	<path fill="#DDDDDD" d="M248.662,327.084c-0.458,0.278-0.861,1.317-1.292,0.713C247.823,327.527,248.241,326.503,248.662,327.084z"
		/>
	<path fill="#DDDDDD" d="M323.406,288.828c0.593-0.407,0.686-0.302,0.305,0.302C323.714,289.132,323.406,288.828,323.406,288.828z"
		/>
	<path fill="#DDDDDD" d="M181.566,626.938c0.435,0.48,0.414,0.5-0.063,0.062C181.503,627.001,181.566,626.938,181.566,626.938z"/>
	<path fill="#DDDDDD" d="M222.548,274.955c0.429,0.494,0.419,0.508-0.036,0.035C222.511,274.991,222.548,274.955,222.548,274.955z"
		/>
	<path fill="#DDDDDD" d="M248.396,326.817c0.603-0.399,0.7-0.323,0.265,0.266C248.662,327.084,248.396,326.817,248.396,326.817z"/>
	<path fill="#DDDDDD" d="M315.575,354.024c-0.463,0.405-0.492,0.374-0.093-0.093C315.481,353.93,315.575,354.024,315.575,354.024z"
		/>
	<path fill="#DDDDDD" d="M220.545,273.957c-0.423-0.23-0.448-0.23-0.029,0.029C220.516,273.986,220.545,273.957,220.545,273.957z"/>
	<path fill="#DDDDDD" d="M283.507,207.942c0.365-0.317,0.661-0.711,1.031-0.962C284.163,207.279,283.886,207.818,283.507,207.942z"
		/>
	<path fill="#DDDDDD" d="M237.566,263.94c0.347,0.338,0.619,0.751,0.974,1.021C238.255,264.593,237.568,264.307,237.566,263.94z"/>
	<path fill="#DDDDDD" d="M134.542,568.986c0.136-0.13,0.551-0.625,0.314-0.162C134.801,568.906,134.481,568.905,134.542,568.986z"/>
	<path fill="#DDDDDD" d="M149.501,554.935c0.49-0.465,0.51-0.443,0.066,0.066C149.568,555.001,149.501,554.935,149.501,554.935z"/>
	<path fill="#DDDDDD" d="M287.535,203.977c0.328-0.354,0.704-0.657,0.988-1.016C288.196,203.318,287.811,203.615,287.535,203.977z"
		/>
	<path fill="#DDDDDD" d="M341.44,340.045c-0.41-0.536-0.364-0.591,0.157-0.156C341.598,339.888,341.44,340.045,341.44,340.045z"/>
	<path fill="#FEFEFE" d="M449.106,295.331l0.097,0.394C448.779,295.711,448.942,295.585,449.106,295.331z"/>
	<path fill="#DDDDDD" d="M151.636,552.091c-0.584,0.438-0.659,0.342-0.266-0.262C151.367,551.827,151.636,552.091,151.636,552.091z"
		/>
	<path fill="#DDDDDD" d="M154.385,545.807c0.651-0.46,0.745-0.318,0.361,0.358C154.622,546.052,154.501,545.932,154.385,545.807z"/>
	<path fill="#DDDDDD" d="M92.683,542.834c0.403,0.636,0.303,0.749-0.329,0.329C92.352,543.166,92.683,542.834,92.683,542.834z"/>
	<path fill="#DDDDDD" d="M400.358,399.349c-0.257,0.098-0.382-0.006-0.215-0.235C400.521,398.875,400.548,399.031,400.358,399.349z"
		/>
	<path fill="#DDDDDD" d="M409.624,233.863c0.282,0.439,1.331,0.818,0.759,1.241C410.134,234.676,409.158,234.259,409.624,233.863z"
		/>
	<path fill="#DDDDDD" d="M409.409,234.079c-0.246-0.416-1.208-0.812-0.789-1.193C408.88,233.302,409.871,233.69,409.409,234.079z"/>
	<path fill="#DDDDDD" d="M200.485,657.006c-0.407-0.483-0.383-0.514,0.085-0.085C200.57,656.92,200.485,657.006,200.485,657.006z"/>
	<path fill="#DDDDDD" d="M181.553,1069.993c-23.028,18.267-31.973-11-55.087-4.091
		C144.446,1047.585,161.738,1082.07,181.553,1069.993z"/>
	<path fill="#DDDDDD" d="M74.939,1118.263c-3.929-0.906-12.453,1.996-13.064-1.451C66.275,1114.848,70.417,1116.58,74.939,1118.263z
		"/>
	<path fill="#DDDDDD" d="M179.945,1102.322c-5.487,0.276-15.205,6.49-18.605,3.36
		C166.897,1105.356,176.225,1099.656,179.945,1102.322z"/>
	<path fill="#DDDDDD" d="M155.46,1108.79c-0.592,0-1.183,0-1.775,0C153.391,1108.079,156.157,1107.653,155.46,1108.79z"/>
	<path fill="#DDDDDD" d="M183.699,1100.628c-0.677,0.146-1.14,0.312-1.076-0.478
		C183.129,1099.967,183.338,1100.278,183.699,1100.628z"/>
	<path fill="#DDDDDD" d="M126.58,1066.036c-0.495,0.184-1.047,1.092-1.395,0.351C125.653,1066.313,126.221,1065.77,126.58,1066.036z
		"/>
	<path fill="#DDDDDD" d="M181.512,1069.945c0.481-0.191,1-1.107,1.333-0.366C182.389,1069.673,181.932,1069.975,181.512,1069.945z"
		/>
	<path fill="#DDDDDD" d="M158.21,1107.349c0.508-0.432,0.687,0.69,0.085,0.311C158.228,1107.616,158.236,1107.457,158.21,1107.349z"
		/>
	<path fill="#DDDDDD" d="M247.544,881.955c-1.184-0.536-1.536-0.684-0.051-1.023C247.679,881.204,247.423,881.75,247.544,881.955z"
		/>
	<path fill="#DDDDDD" d="M184.483,1041.017c-0.452-0.251-1.65-0.243-1.025-0.793
		C183.744,1040.479,184.519,1040.712,184.483,1041.017z"/>
	<path fill="#DDDDDD" d="M183.569,1026.938c0.355,0.328,0.61,0.801,0.975,1.012C184.26,1027.587,183.543,1027.3,183.569,1026.938z"
		/>
	<path fill="#DDDDDD" d="M184.512,1027.982c0.404,0.224,0.431,0.223,0.032-0.032
		C184.544,1027.951,184.512,1027.982,184.512,1027.982z"/>
	<path fill="#DDDDDD" d="M140.68,1042.585c0.245-0.099,0.391-0.022,0.226,0.218C140.543,1043.058,140.507,1042.913,140.68,1042.585z
		"/>
	<path fill="#DDDDDD" d="M140.374,1043.31c-0.224,0.097-0.333,0.013-0.185-0.194C140.524,1042.887,140.544,1043.023,140.374,1043.31
		z"/>
	<path fill="#DDDDDD" d="M446.466,1079.989c18.757,13.528,51.552-23.296,64.373,10.782
		C484.198,1056.18,456.486,1113.865,446.466,1079.989z"/>
	<path fill="#DDDDDD" d="M502.522,1060.979c-17.281-8.379-46.438-4.489-49.421,17.864
		C448.517,1054.052,491.388,1040.217,502.522,1060.979z"/>
	<path fill="#DDDDDD" d="M479.578,1151.154c14.673,4.603,29.044,4.206,43.434-2.095
		C517.897,1157.355,492.866,1158.566,479.578,1151.154z"/>
	<path fill="#DDDDDD" d="M435.448,1036.461c-4.589-6.753-3.158-14.029-4.594-20.614
		C435.5,1021.658,436.788,1028.279,435.448,1036.461z"/>
	<path fill="#DDDDDD" d="M476.248,1150.579c0.068-0.456,0.249-0.351,0.571-0.214C476.751,1150.82,476.57,1150.715,476.248,1150.579z
		"/>
	<path fill="#DDDDDD" d="M502.537,1060.963c0.137,0.144,0.273,0.289,0.41,0.433C502.678,1061.414,502.547,1061.189,502.537,1060.963
		z"/>
	<path fill="#FFFFFF" d="M418.379,266.081c8.12,50.016,42.788,51.703,14.324,59.807c23.335,4.559-34.924,6.543-46.559-8.129
		c-5.832-1.422-2.702,0.967,1.813,3.258c-9.879-1.227-18.284-2.47-26.734-3.232c-5.42-1.703-16.51,4.921-16.817-4.016
		C330.163,274.558,389.577,220.473,418.379,266.081z M355.748,299.697c-2.893,0.511-1.731,6.838-2.932,9.517
		C356.309,309.886,354.605,302.345,355.748,299.697z"/>
	<path fill="#FFFFFF" d="M249.505,880.945c0.516-0.231,1.1-1.129,1.402-0.356C250.429,880.676,249.943,880.992,249.505,880.945z"/>
	<path fill="#FFFFFF" d="M247.512,881.986c-0.299-1.371,1.099-1.039,2.038-0.989C248.871,881.327,248.191,881.656,247.512,881.986z"
		/>
	<path fill="#FFFFFF" d="M409.936,784.702c-3.879-0.454-2.463-2.65-1.541-4.683C408.909,781.58,409.423,783.141,409.936,784.702z"/>
	<path fill="#FFFFFF" d="M254.434,522.099c17.006,18.01,33.95,13.598,41.083,41.243
		C328.451,623.364,252.995,554.931,254.434,522.099z"/>
	<path fill="#FFFFFF" d="M211.204,470.375c10.876-1.666,13.637,15.158,4.529,17.503c-17.033-0.102-40.873,8.259-33.219-17.732
		c-5.799-23.487,15.625-18.602,31.959-19.719C223.936,456.695,220.774,471.267,211.204,470.375z"/>
	<path fill="#FFFFFF" d="M352.464,509.886c-4.126,0.03-1.11-1.403,1.084-1.929C353.186,508.599,352.825,509.242,352.464,509.886z"/>
	<path fill="#FFFFFF" d="M431.512,734.982c0.401,0.226,0.428,0.226,0.032-0.032C431.544,734.951,431.512,734.982,431.512,734.982z"
		/>
	<path fill="#DDDDDD" d="M355.748,299.697c-1.142,2.648,0.562,10.187-2.93,9.518C354.016,306.535,352.854,300.209,355.748,299.697z"
		/>
</g>
</svg>
